<svg data-v-423bf9ae="" xmlns="http://www.w3.org/2000/svg" viewBox="0 0 206.56939260264676 60" class="font"><!----><!----><!----><g data-v-423bf9ae="" id="6c0f15ae-b101-428e-b331-1eed91370b80" fill="white" transform="matrix(5.212080001831055,0,0,5.212080001831055,0.6311540603637695,-28.666439056396484)"><path d="M2.23 7.48L2.23 7.48L2.23 7.48Q1.63 7.48 1.32 7.18L1.32 7.18L1.32 7.18Q1.01 6.89 1.01 6.47L1.01 6.47L1.01 6.47Q1.01 6.05 1.35 5.77L1.35 5.77L1.35 5.77Q1.69 5.50 2.25 5.50L2.25 5.50L2.25 5.50Q2.81 5.50 3.14 5.78L3.14 5.78L3.14 5.78Q3.47 6.06 3.47 6.47L3.47 6.47L3.47 6.47Q3.47 6.89 3.14 7.18L3.14 7.18L3.14 7.18Q2.82 7.48 2.23 7.48ZM0.33 17.01L-0.12 16.13L0.21 15.89L0.21 15.89Q0.61 15.58 0.78 15.35L0.78 15.35L0.78 15.35Q0.96 15.12 1.10 14.88L1.10 14.88L1.10 14.88Q1.24 14.64 1.33 14.38L1.33 14.38L1.33 14.38Q1.52 13.79 1.52 13.06L1.52 13.06L1.52 9.83L0.51 9.26L0.68 8.36L2.88 8.21L3.17 8.48L3.17 13.37L3.17 13.37Q3.17 15.47 1.37 16.53L1.37 16.53L1.37 16.53Q1.05 16.71 0.66 16.89L0.66 16.89L0.33 17.01ZM14.59 14.40L7.41 14.40L7.50 13.67L8.61 13.24L8.61 7.16L7.38 6.65L7.49 5.89L11.91 5.89L11.81 6.65L10.55 7.15L10.55 13.38L12.98 13.46L14.02 11.68L14.88 11.80L14.59 14.40ZM18.15 9.13L18.15 9.13L18.15 9.13Q16.99 9.13 16.99 10.90L16.99 10.90L16.99 10.90Q16.99 12.56 17.62 13.22L17.62 13.22L17.62 13.22Q17.96 13.58 18.50 13.58L18.50 13.58L18.50 13.58Q19.04 13.58 19.32 13.15L19.32 13.15L19.32 13.15Q19.59 12.71 19.59 12.12L19.59 12.12L19.59 12.12Q19.59 11.53 19.55 11.16L19.55 11.16L19.55 11.16Q19.52 10.78 19.42 10.40L19.42 10.40L19.42 10.40Q19.32 10.02 19.16 9.75L19.16 9.75L19.16 9.75Q18.81 9.13 18.15 9.13ZM15.42 12.58L15.42 12.58L15.42 12.58Q15.24 12.02 15.24 11.31L15.24 11.31L15.24 11.31Q15.24 10.60 15.52 9.96L15.52 9.96L15.52 9.96Q15.80 9.32 16.26 8.91L16.26 8.91L16.26 8.91Q17.23 8.06 18.53 8.06L18.53 8.06L18.53 8.06Q19.82 8.06 20.59 8.88L20.59 8.88L20.59 8.88Q21.36 9.71 21.36 11.21L21.36 11.21L21.36 11.21Q21.36 12.72 20.49 13.65L20.49 13.65L20.49 13.65Q19.63 14.58 18.27 14.58L18.27 14.58L18.27 14.58Q16.03 14.58 15.42 12.58ZM23.38 12.71L23.38 12.71L23.38 12.71Q23.38 12.96 23.55 13.16L23.55 13.16L23.55 13.16Q23.73 13.36 24.10 13.36L24.10 13.36L24.10 13.36Q24.47 13.36 24.90 12.95L24.90 12.95L24.90 11.57L24.90 11.57Q23.38 11.83 23.38 12.71ZM21.77 13.18L21.77 13.18L21.77 13.18Q21.77 12.29 22.58 11.67L22.58 11.67L22.58 11.67Q23.39 11.04 24.90 10.99L24.90 10.99L24.90 10.47L24.90 10.47Q24.90 9.85 24.64 9.43L24.64 9.43L24.64 9.43Q24.37 9.02 23.94 9.02L23.94 9.02L23.94 9.02Q23.52 9.02 23.40 9.32L23.40 9.32L23.40 9.32Q23.28 9.62 23.21 10.49L23.21 10.49L23.21 10.49Q22.30 10.49 22.07 10.11L22.07 10.11L22.07 10.11Q21.96 9.94 21.96 9.63L21.96 9.63L21.96 9.63Q21.96 9.32 22.40 8.94L22.40 8.94L22.40 8.94Q22.85 8.56 23.50 8.32L23.50 8.32L23.50 8.32Q24.15 8.08 24.73 8.08L24.73 8.08L24.73 8.08Q26.51 8.08 26.51 10.18L26.51 10.18L26.51 12.56L26.51 12.56Q26.51 12.84 26.53 12.90L26.53 12.90L26.53 12.90Q26.56 12.96 26.59 13.04L26.59 13.04L26.59 13.04Q26.62 13.13 26.66 13.15L26.66 13.15L26.66 13.15Q26.71 13.18 26.78 13.23L26.78 13.23L26.78 13.23Q26.89 13.30 27.16 13.35L27.16 13.35L27.43 13.40L27.30 14.27L27.30 14.27Q26.87 14.54 26.27 14.54L26.27 14.54L26.27 14.54Q25.68 14.54 25.44 14.30L25.44 14.30L25.44 14.30Q25.20 14.05 25.09 13.54L25.09 13.54L25.01 13.52L25.01 13.52Q24.85 13.90 24.34 14.23L24.34 14.23L24.34 14.23Q23.83 14.56 23.19 14.56L23.19 14.56L23.19 14.56Q22.55 14.56 22.16 14.20L22.16 14.20L22.16 14.20Q21.77 13.84 21.77 13.18ZM29.57 11.10L29.57 11.10L29.57 11.10Q29.57 12.11 29.90 12.64L29.90 12.64L29.90 12.64Q30.23 13.17 30.80 13.17L30.80 13.17L30.80 13.17Q31.36 13.17 31.89 12.73L31.89 12.73L31.89 10.04L31.89 10.04Q31.63 9.66 31.31 9.46L31.31 9.46L31.31 9.46Q30.98 9.26 30.65 9.26L30.65 9.26L30.65 9.26Q30.32 9.26 30.06 9.55L30.06 9.55L30.06 9.55Q29.57 10.08 29.57 11.10ZM30.03 14.53L30.03 14.53Q29.03 14.53 28.42 13.77L28.42 13.77L28.42 13.77Q27.81 13.02 27.81 11.93L27.81 11.93L27.81 11.93Q27.81 10.84 28.21 10.02L28.21 10.02L28.21 10.02Q28.60 9.21 29.33 8.71L29.33 8.71L29.33 8.71Q30.06 8.20 30.97 8.20L30.97 8.20L30.97 8.20Q31.21 8.20 31.50 8.27L31.50 8.27L31.50 8.27Q31.79 8.35 31.94 8.45L31.94 8.45L31.99 8.45L31.91 7.77L31.91 7.23L30.80 6.69L30.93 5.88L33.22 5.70L33.49 5.97L33.49 12.38L33.49 12.38Q33.49 12.88 33.66 13.05L33.66 13.05L33.66 13.05Q33.83 13.21 34.34 13.36L34.34 13.36L34.58 13.43L34.46 14.29L34.46 14.29Q32.97 14.83 32.34 14.30L32.34 14.30L32.34 14.30Q32.05 14.05 31.96 13.60L31.96 13.60L31.94 13.54L31.86 13.52L31.86 13.52Q31.53 13.99 31.10 14.26L31.10 14.26L31.10 14.26Q30.67 14.53 30.03 14.53L30.03 14.53ZM37.06 14.64L37.06 14.64L37.06 14.64Q36.09 14.64 35.44 14.26L35.44 14.26L35.44 14.26Q34.80 13.89 34.80 13.41L34.80 13.41L34.80 13.41Q34.80 12.92 35.10 12.65L35.10 12.65L35.10 12.65Q35.39 12.39 35.91 12.35L35.91 12.35L35.91 12.35Q36.11 13.04 36.44 13.40L36.44 13.40L36.44 13.40Q36.78 13.75 37.18 13.75L37.18 13.75L37.18 13.75Q38.01 13.75 38.01 13.19L38.01 13.19L38.01 13.19Q38.01 12.78 37.23 12.41L37.23 12.41L37.23 12.41Q36.43 12.03 35.78 11.55L35.78 11.55L35.78 11.55Q35.44 11.31 35.22 10.93L35.22 10.93L35.22 10.93Q35 10.55 35 10.17L35 10.17L35 10.17Q35 9.78 35.13 9.45L35.13 9.45L35.13 9.45Q35.27 9.12 35.53 8.80L35.53 8.80L35.53 8.80Q35.80 8.48 36.28 8.28L36.28 8.28L36.28 8.28Q36.76 8.08 37.51 8.08L37.51 8.08L37.51 8.08Q38.26 8.08 38.80 8.38L38.80 8.38L38.80 8.38Q39.35 8.68 39.35 9.18L39.35 9.18L39.35 9.18Q39.35 9.67 39.03 9.96L39.03 9.96L39.03 9.96Q38.71 10.25 38.22 10.29L38.22 10.29L38.08 9.86L38.08 9.86Q37.83 8.87 37.05 8.87L37.05 8.87L37.05 8.87Q36.74 8.87 36.56 9.06L36.56 9.06L36.56 9.06Q36.38 9.24 36.38 9.50L36.38 9.50L36.38 9.50Q36.38 9.76 36.61 9.98L36.61 9.98L36.61 9.98Q36.85 10.21 37.19 10.38L37.19 10.38L37.19 10.38Q37.54 10.55 37.95 10.78L37.95 10.78L37.95 10.78Q38.35 11.01 38.70 11.25L38.70 11.25L38.70 11.25Q39.05 11.49 39.28 11.87L39.28 11.87L39.28 11.87Q39.51 12.26 39.51 12.71L39.51 12.71L39.51 12.71Q39.51 13.58 38.78 14.11L38.78 14.11L38.78 14.11Q38.04 14.64 37.06 14.64Z"></path></g><!----><!----></svg>